<svg version="1.1" id="Layer_1" xmlns="http://www.w3.org/2000/svg" xmlns:xlink="http://www.w3.org/1999/xlink" x="0px" y="0px"
	 viewBox="0 0 1178.156 1591.187" style="enable-background:new 0 0 1178.156 1591.187;" xml:space="preserve">

<style type="text/css">

.st0 {
		fill: none;
		stroke: #2F3030;
		stroke-width: 5;
		stroke-linecap: round;
		stroke-linejoin: round;
	 }

<defs>

	<style type="text/css">

		.st0 {
				stroke-dasharray: 2000;
				stroke-dashoffset: 0;
				-webkit-animation: dash 3s linear alternate infinite;
				-o-animation: dash 3s linear alternate infinite;
				-moz-animation: dash 3s linear alternate infinite;
				animation: dash 3s linear alternate infinite;    }

		@-webkit-keyframes dash {
				from {
					stroke-dashoffset: 2000;
				}
				to {
					stroke-dashoffset: 0;
				}
		}
	</style>

</defs>

</style>

<g>
	<line class="st0 objexyz" x1="709.402" y1="858.082" x2="709.348" y2="864.321"/>
	<line class="st0" x1="709.067" y1="896.364" x2="708.851" y2="921.135"/>
	<line class="st0" x1="666.422" y1="850.701" x2="567.391" y2="834.06"/>
	<line class="st0" x1="678.676" y1="841.667" x2="666.422" y2="850.701"/>
	<line class="st0" x1="579.886" y1="825.129" x2="678.676" y2="841.667"/>
	<line class="st0" x1="567.391" y1="834.06" x2="579.886" y2="825.129"/>
	<line class="st0" x1="721.221" y1="1101.908" x2="716.049" y2="1117.389"/>
	<line class="st0" x1="716.049" y1="1117.389" x2="674.195" y2="1140.808"/>
	<line class="st0" x1="729.641" y1="939.334" x2="729.907" y2="911.238"/>
	<line class="st0" x1="729.907" y1="911.238" x2="705.715" y2="929.746"/>
	<line class="st0" x1="705.686" y1="929.768" x2="706.372" y2="870.128"/>
	<line class="st0" x1="706.372" y1="870.128" x2="676.033" y2="894.373"/>
	<line class="st0" x1="676.033" y1="894.373" x2="674.195" y2="1140.808"/>
	<line class="st0" x1="674.195" y1="1140.808" x2="674.195" y2="1140.808"/>
	<line class="st0" x1="666.725" y1="883.076" x2="495.689" y2="854.012"/>
	<path class="st0" d="M495.689,854.012c-3.458,3.864-4.782,7.628-4.505,12.806"/>
	<line class="st0" x1="491.184" y1="866.817" x2="662.302" y2="896.032"/>
	<path class="st0" d="M662.302,896.032c-0.237-5.17,1.076-9.01,4.423-12.956"/>
	<line class="st0" x1="666.725" y1="883.076" x2="667.053" y2="889.724"/>
	<line class="st0" x1="667.053" y1="889.724" x2="717.579" y2="851.97"/>
	<line class="st0" x1="717.579" y1="851.97" x2="717.642" y2="845.123"/>
	<line class="st0" x1="717.642" y1="845.123" x2="666.725" y2="883.076"/>
	<line class="st0" x1="495.689" y1="854.012" x2="548.305" y2="816.805"/>
	<line class="st0" x1="548.305" y1="816.805" x2="717.642" y2="845.123"/>
	<line class="st0" x1="667.053" y1="889.724" x2="676.033" y2="894.373"/>
	<path class="st0" d="M666.137,896.393c-1.29-0.032-2.561-0.145-3.835-0.361"/>
	<path class="st0" d="M676.033,894.373c-3.213,1.714-6.27,2.34-9.896,2.02"/>
	<line class="st0" x1="662.302" y1="896.032" x2="660.595" y2="1142.589"/>
	<path class="st0" d="M660.595,1142.589c4.993,1.134,9.068,0.601,13.6-1.78"/>
	<path class="st0" d="M491.184,866.817c-2.941-0.504-8.314-2.187-4.682-4.758"/>
	<line class="st0" x1="491.184" y1="866.817" x2="491.105" y2="1111.214"/>
	<line class="st0" x1="491.105" y1="1111.214" x2="660.595" y2="1142.589"/>
	<line class="st0" x1="706.372" y1="870.128" x2="698.24" y2="866.817"/>
	<line class="st0" x1="495.689" y1="854.012" x2="486.503" y2="862.059"/>
	<line class="st0" x1="487.982" y1="1110.871" x2="486.466" y2="1110.589"/>
	<line class="st0" x1="486.466" y1="1110.589" x2="486.466" y2="1109.465"/>
	<path class="st0" d="M485.463,1107.482c0.942,3.01,2.503,4.043,5.642,3.732"/>
	<line class="st0" x1="705.741" y1="923.511" x2="723.297" y2="910.109"/>
	<line class="st0" x1="723.297" y1="910.109" x2="729.907" y2="911.238"/>
	<line class="st0" x1="706.372" y1="894.324" x2="717.239" y2="886.109"/>
	<path class="st0" d="M717.239,886.109c-0.103-10.77-3.429-18.136-11.439-25.335"/>
	<line class="st0" x1="717.202" y1="890.208" x2="717.239" y2="886.109"/>
	<line class="st0" x1="706.372" y1="898.407" x2="717.202" y2="890.208"/>
	<line class="st0" x1="594.451" y1="824.523" x2="637.471" y2="793.668"/>
	<line class="st0" x1="745.519" y1="917.64" x2="746.593" y2="811.675"/>
	<line class="st0" x1="746.593" y1="811.675" x2="704.496" y2="842.926"/>
	<line class="st0" x1="746.593" y1="811.675" x2="637.471" y2="793.668"/>
	<line class="st0" x1="858.674" y1="1126.937" x2="822.056" y2="1158.291"/>
	<line class="st0" x1="771.933" y1="1201.201" x2="557.112" y2="1385.12"/>
	<line class="st0" x1="376.448" y1="1086.848" x2="236.527" y2="1190.728"/>
	<line class="st0" x1="155.984" y1="1250.526" x2="98.188" y2="1293.433"/>
	<line class="st0" x1="601.673" y1="1131.682" x2="342.978" y2="1337.527"/>
	<line class="st0" x1="921.567" y1="1164.558" x2="623.638" y2="1425.012"/>
	<line class="st0" x1="24.253" y1="1303.941" x2="383.845" y2="1040.472"/>
	<line class="st0" x1="852.373" y1="1125.79" x2="815.705" y2="1157.12"/>
	<line class="st0" x1="765.689" y1="1199.851" x2="550.405" y2="1383.783"/>
	<line class="st0" x1="550.405" y1="1383.783" x2="606.217" y2="1394.89"/>
	<line class="st0" x1="606.217" y1="1394.89" x2="818.906" y2="1210.004"/>
	<line class="st0" x1="868.542" y1="1166.855" x2="904.802" y2="1135.335"/>
	<line class="st0" x1="90.758" y1="1291.943" x2="143.529" y2="1302.522"/>
	<line class="st0" x1="143.529" y1="1302.522" x2="228.73" y2="1238.446"/>
	<line class="st0" x1="280.835" y1="1199.261" x2="419.765" y2="1094.776"/>
	<line class="st0" x1="368.988" y1="1085.812" x2="229.266" y2="1189.328"/>
	<line class="st0" x1="155.897" y1="1243.684" x2="90.758" y2="1291.943"/>
	<line class="st0" x1="594.934" y1="1130.434" x2="335.909" y2="1336.11"/>
	<line class="st0" x1="335.909" y1="1336.11" x2="362.997" y2="1341.533"/>
	<line class="st0" x1="362.997" y1="1341.533" x2="620.759" y2="1135.214"/>
	<line class="st0" x1="382.058" y1="1087.875" x2="242.264" y2="1191.833"/>
	<line class="st0" x1="156.053" y1="1255.944" x2="104.06" y2="1294.609"/>
	<line class="st0" x1="210.66" y1="206.989" x2="219.472" y2="1069.9"/>
	<line class="st0" x1="216.146" y1="1072.269" x2="207.194" y2="206.525"/>
	<line class="st0" x1="219.472" y1="1069.9" x2="257.396" y2="1110.151"/>
	<line class="st0" x1="254.097" y1="1112.551" x2="216.146" y2="1072.269"/>
	<line class="st0" x1="936.274" y1="304.31" x2="921.377" y2="1192.97"/>
	<line class="st0" x1="207.194" y1="206.525" x2="936.274" y2="304.31"/>
	<line class="st0" x1="254.097" y1="1112.551" x2="254.118" y2="1114.838"/>
	<line class="st0" x1="257.418" y1="1112.438" x2="257.396" y2="1110.151"/>
	<path class="st0" d="M908.315,200.4"/>
	<path class="st0" d="M748.421,1247.274"/>
	<path class="st0" d="M723.627,1242.558"/>
	<line class="st0" x1="150.131" y1="23.709" x2="149.878" y2="3.27"/>
	<line class="st0" x1="149.878" y1="3.27" x2="115.298" y2="19.653"/>
	<line class="st0" x1="60.958" y1="136.13" x2="108.05" y2="18.76"/>
	<line class="st0" x1="108.329" y1="18.634" x2="143.577" y2="2.5"/>
	<line class="st0" x1="149.878" y1="3.27" x2="143.577" y2="2.5"/>
	<line class="st0" x1="1107.072" y1="258.358" x2="1175.656" y2="56.11"/>
	<line class="st0" x1="1168.534" y1="55.268" x2="1099.935" y2="257.491"/>
	<line class="st0" x1="1099.33" y1="283.055" x2="1099.911" y2="257.924"/>
	<line class="st0" x1="1175.656" y1="56.11" x2="1142.132" y2="1352.382"/>
	<line class="st0" x1="1107.096" y1="258.861" x2="1099.911" y2="257.924"/>
	<line class="st0" x1="1106.576" y1="280.988" x2="1107.096" y2="258.861"/>
	<line class="st0" x1="60.958" y1="136.13" x2="64.379" y2="148.277"/>
	<line class="st0" x1="88.315" y1="1226.17" x2="71.846" y2="149.261"/>
	<line class="st0" x1="1079.965" y1="1413.61" x2="1106.576" y2="280.988"/>
	<path class="st0" d="M1106.576,280.988c-6.75,2.619-13.019,3.228-20.146,1.957"/>
	<line class="st0" x1="1086.43" y1="282.945" x2="1060.658" y2="1416.4"/>
	<path class="st0" d="M1060.658,1416.4c7.235,1.87,12.898,1.052,19.308-2.791"/>
	<line class="st0" x1="1142.132" y1="1352.382" x2="1079.965" y2="1413.61"/>
	<line class="st0" x1="71.846" y1="149.261" x2="1086.153" y2="282.909"/>
	<line class="st0" x1="81.175" y1="1225.377" x2="99.317" y2="1227.518"/>
	<line class="st0" x1="857.978" y1="1376.58" x2="1060.658" y2="1416.4"/>
	<line class="st0" x1="932.347" y1="207.414" x2="967.57" y2="211.942"/>
	<line class="st0" x1="967.57" y1="211.942" x2="972.223" y2="198.142"/>
	<line class="st0" x1="972.223" y1="198.142" x2="937.021" y2="193.645"/>
	<line class="st0" x1="937.021" y1="193.645" x2="932.347" y2="207.414"/>
	<line class="st0" x1="908.6" y1="199.564" x2="841.577" y2="190.963"/>
	<path class="st0" d="M841.577,190.963"/>
	<line class="st0" x1="841.577" y1="190.963" x2="840.348" y2="194.529"/>
	<line class="st0" x1="840.348" y1="194.529" x2="907.381" y2="203.143"/>
	<line class="st0" x1="907.381" y1="203.143" x2="908.6" y2="199.564"/>
	<line class="st0" x1="1011.255" y1="197.744" x2="1054.554" y2="68.428"/>
	<line class="st0" x1="1054.554" y1="68.428" x2="859.447" y2="45.056"/>
	<line class="st0" x1="859.447" y1="45.056" x2="815.14" y2="172.747"/>
	<line class="st0" x1="815.14" y1="172.747" x2="1011.255" y2="197.744"/>
	<line class="st0" x1="855.441" y1="18.239" x2="1175.656" y2="56.11"/>
	<line class="st0" x1="1095.825" y1="271.43" x2="69.319" y2="136.917"/>
	<line class="st0" x1="69.319" y1="136.917" x2="115.298" y2="19.653"/>
	<line class="st0" x1="108.05" y1="18.76" x2="690.443" y2="90.497"/>
	<line class="st0" x1="690.443" y1="90.497" x2="745.554" y2="95.519"/>
	<line class="st0" x1="745.554" y1="95.519" x2="855.441" y2="18.239"/>
	<path class="st0" d="M282.839,1436.863c-0.433-5.916,8.512-3.959,8.715,1.802"/>
	<path class="st0" d="M291.554,1438.665c0.43,5.919-8.509,3.962-8.715-1.802"/>
	<path class="st0" d="M342.566,1449.215c-0.401-5.964,8.578-3.991,8.778,1.815"/>
	<path class="st0" d="M351.344,1451.03c0.398,5.961-8.575,3.991-8.778-1.815"/>
	<line class="st0" x1="851.698" y1="1382.055" x2="865.612" y2="1369.308"/>
	<line class="st0" x1="848.794" y1="1381.486" x2="851.698" y2="1382.055"/>
	<line class="st0" x1="668.207" y1="1571.082" x2="675.469" y2="1543.508"/>
	<line class="st0" x1="675.469" y1="1543.508" x2="847.918" y2="1385.516"/>
	<line class="st0" x1="869.352" y1="1365.881" x2="876.257" y2="1359.556"/>
	<line class="st0" x1="866.471" y1="1365.317" x2="869.352" y2="1365.881"/>
	<path class="st0" d="M847.918,1385.516c0.008-2.226,0.601-3.978,1.949-5.75"/>
	<path class="st0" d="M865.612,1369.308c0.008-2.213,0.596-3.954,1.931-5.719"/>
	<line class="st0" x1="876.257" y1="1359.556" x2="878.27" y2="1229.351"/>
	<line class="st0" x1="11.077" y1="1297.838" x2="367.967" y2="1037.581"/>
	<line class="st0" x1="99.568" y1="1443.768" x2="543.639" y2="1536.801"/>
	<line class="st0" x1="68.377" y1="1464.73" x2="99.568" y2="1443.768"/>
	<line class="st0" x1="72.031" y1="1462.719" x2="72.075" y2="1465.434"/>
	<line class="st0" x1="72.075" y1="1465.434" x2="68.435" y2="1468.259"/>
	<line class="st0" x1="68.435" y1="1468.259" x2="68.377" y2="1464.73"/>
	<line class="st0" x1="577.019" y1="1572.132" x2="577.005" y2="1575.754"/>
	<line class="st0" x1="543.639" y1="1536.801" x2="577.019" y2="1572.132"/>
	<line class="st0" x1="13.942" y1="1301.858" x2="637.674" y2="1427.848"/>
	<line class="st0" x1="68.435" y1="1468.259" x2="5.419" y2="1454.939"/>
	<line class="st0" x1="921.377" y1="1192.97" x2="648.048" y2="1426.371"/>
	<line class="st0" x1="655.117" y1="1427.797" x2="654.054" y2="1584.606"/>
	<line class="st0" x1="654.054" y1="1584.606" x2="668.445" y2="1571.341"/>
	<path class="st0" d="M849.867,1379.766c1.44-1.322,1.804,0.949,1.831,2.289"/>
	<path class="st0" d="M867.542,1363.589c1.438-1.313,1.786,0.96,1.809,2.292"/>
	<path class="st0" d="M852.289,1341.589c0.058,2.68-3.843,6.847-3.793,3.437"/>
	<path class="st0" d="M848.496,1345.026c-0.061-2.68,3.843-6.847,3.793-3.437"/>
	<path class="st0" d="M869.969,1325.581c0.058,2.653-3.809,6.781-3.756,3.403"/>
	<path class="st0" d="M866.213,1328.983c-0.058-2.656,3.809-6.781,3.756-3.403"/>
	<line class="st0" x1="4.525" y1="1296.516" x2="361.797" y2="1036.458"/>
	<path class="st0" d="M655.117,1427.797c-6.892,3.983-13.022,4.859-20.753,2.959"/>
	<line class="st0" x1="634.364" y1="1430.757" x2="633.425" y2="1587.678"/>
	<path class="st0" d="M633.425,1587.678c7.749,1.984,13.795,1.081,20.629-3.073"/>
	<line class="st0" x1="654.835" y1="1427.74" x2="648.048" y2="1426.371"/>
	<path class="st0" d="M648.048,1426.371c-3.445,1.989-6.51,2.424-10.374,1.477"/>
	<path class="st0" d="M10.244,1304.559c-4.732-0.957-11.036-4.17-5.718-8.042"/>
	<path class="st0" d="M13.942,1301.858c-2.366-0.477-5.523-2.081-2.864-4.02"/>
	<line class="st0" x1="10.244" y1="1304.559" x2="634.364" y2="1430.757"/>
	<line class="st0" x1="633.425" y1="1587.678" x2="577.005" y2="1575.754"/>
	<line class="st0" x1="161.75" y1="1214.884" x2="203.306" y2="1184.327"/>
	<line class="st0" x1="161.948" y1="1214.921" x2="174.659" y2="1217.4"/>
	<line class="st0" x1="223.439" y1="1226.912" x2="242.436" y2="1230.615"/>
	<line class="st0" x1="242.436" y1="1230.615" x2="283.43" y2="1199.765"/>
	<line class="st0" x1="283.43" y1="1199.765" x2="203.306" y2="1184.327"/>
	<line class="st0" x1="161.717" y1="1214.997" x2="161.948" y2="1226.781"/>
	<line class="st0" x1="247.766" y1="1242.134" x2="247.719" y2="1237.111"/>
	<line class="st0" x1="247.719" y1="1237.111" x2="242.436" y2="1230.615"/>
	<line class="st0" x1="288.642" y1="1206.167" x2="283.43" y2="1199.765"/>
	<line class="st0" x1="247.793" y1="1242.201" x2="288.692" y2="1209.698"/>
	<line class="st0" x1="288.692" y1="1209.698" x2="288.666" y2="1206.196"/>
	<path class="st0" d="M177.682,1260.307c5.391,1.287,8.111,3.888,9.886,9.097"/>
	<path class="st0" d="M170.338,1262.058c2.316-1.92,4.41-2.421,7.343-1.751"/>
	<path class="st0" d="M158.258,1267.392c-1.2-14.032,5.602-19.909,19.31-16.686"/>
	<path class="st0" d="M188.501,1256.321c1.683,1.504,3.126,3.152,4.394,5.017"/>
	<path class="st0" d="M158.258,1267.392c0.016,1.158,0.121,2.297,0.311,3.44"/>
	<path class="st0" d="M194.565,1264.139c-0.501-0.968-1.058-1.899-1.67-2.801"/>
	<path class="st0" d="M188.501,1256.321c-3.234-2.954-6.65-4.706-10.933-5.615"/>
	<line class="st0" x1="751.602" y1="1187.231" x2="756.969" y2="1182.815"/>
	<line class="st0" x1="756.969" y1="1182.815" x2="792.578" y2="1152.857"/>
	<line class="st0" x1="756.969" y1="1182.815" x2="839.71" y2="1198.24"/>
	<line class="st0" x1="839.71" y1="1198.24" x2="874.711" y2="1167.995"/>
	<line class="st0" x1="874.711" y1="1167.995" x2="792.578" y2="1152.857"/>
	<line class="st0" x1="751.602" y1="1187.231" x2="751.494" y2="1197.565"/>
	<line class="st0" x1="844.998" y1="1204.668" x2="839.792" y2="1198.341"/>
	<line class="st0" x1="879.955" y1="1174.359" x2="874.738" y2="1168.024"/>
	<line class="st0" x1="845.052" y1="1214.782" x2="879.857" y2="1182.815"/>
	<line class="st0" x1="879.857" y1="1182.815" x2="879.95" y2="1174.66"/>
	<line class="st0" x1="357.018" y1="1071.95" x2="361.979" y2="1067.651"/>
	<line class="st0" x1="361.995" y1="1067.637" x2="395.942" y2="1042.675"/>
	<line class="st0" x1="362.185" y1="1067.672" x2="439.935" y2="1081.973"/>
	<line class="st0" x1="439.935" y1="1081.973" x2="473.407" y2="1056.781"/>
	<line class="st0" x1="445.012" y1="1099.397" x2="444.996" y2="1088.161"/>
	<line class="st0" x1="444.996" y1="1088.161" x2="439.935" y2="1081.973"/>
	<line class="st0" x1="444.993" y1="1099.284" x2="485.432" y2="1068.752"/>
	<line class="st0" x1="155.739" y1="1231.364" x2="198.326" y2="1239.712"/>
	<line class="st0" x1="198.326" y1="1239.712" x2="223.381" y2="1220.995"/>
	<line class="st0" x1="223.381" y1="1220.995" x2="180.973" y2="1212.74"/>
	<line class="st0" x1="180.973" y1="1212.74" x2="155.739" y2="1231.364"/>
	<line class="st0" x1="156.264" y1="1272.553" x2="155.739" y2="1231.364"/>
	<line class="st0" x1="198.326" y1="1239.712" x2="198.566" y2="1261.349"/>
	<line class="st0" x1="223.439" y1="1237.301" x2="223.381" y2="1220.995"/>
	<path class="st0" d="M1095.551,272.268"/>
	<line class="st0" x1="1095.825" y1="271.43" x2="1100.228" y2="258.027"/>
	<path class="st0" d="M242.161,863.323c-0.612,0.174-1.229,0.322-1.854,0.443"/>
	<path class="st0" d="M238.01,864.124c-3.036,0.356-5.993,0.34-9.023-0.111"/>
	<path class="st0" d="M222.139,861.376c-4.476-5.014,4.378-5.109,8.401-5.579"/>
	<path class="st0" d="M240.188,856.014c3.598,0.62,9.693,2.949,5.302,5.882"/>
	<line class="st0" x1="922.165" y1="1129.559" x2="697.131" y2="1088.777"/>
	<line class="st0" x1="485.582" y1="1050.284" x2="218.779" y2="1001.836"/>
	<line class="st0" x1="924.046" y1="1019.508" x2="697.023" y2="979.724"/>
	<line class="st0" x1="485.445" y1="942.646" x2="217.695" y2="895.723"/>
	<line class="st0" x1="924.381" y1="999.86" x2="697.131" y2="960.29"/>
	<line class="st0" x1="485.445" y1="923.434" x2="217.499" y2="876.78"/>
	<line class="st0" x1="216.993" y1="827.182" x2="485.455" y2="873.129"/>
	<line class="st0" x1="729.873" y1="914.962" x2="925.262" y2="948.405"/>
	<path class="st0" d="M230.54,855.797c3.255-0.38,6.412-0.311,9.649,0.216"/>
	<path class="st0" d="M245.49,861.896c-1.037,0.694-2.15,1.089-3.329,1.427"/>
	<path class="st0" d="M240.307,863.766c-0.762,0.153-1.527,0.269-2.297,0.359"/>
	<path class="st0" d="M229.036,864.022c-2.553-0.375-4.801-0.942-6.897-2.646"/>
	<line class="st0" x1="485.432" y1="1107.482" x2="485.445" y2="864.438"/>
	<line class="st0" x1="19.75" y1="1302.641" x2="379.216" y2="1039.631"/>
	<line class="st0" x1="81.175" y1="1225.377" x2="64.379" y2="148.277"/>
	<line class="st0" x1="5.419" y1="1454.939" x2="2.59" y2="1299.848"/>
	<line class="st0" x1="121.956" y1="1298.197" x2="170.328" y2="1262.042"/>
	<line class="st0" x1="259.85" y1="1195.129" x2="399.156" y2="1091.004"/>
	<line class="st0" x1="581.727" y1="1390.019" x2="796.785" y2="1205.859"/>
	<line class="st0" x1="847.05" y1="1162.817" x2="883.64" y2="1131.484"/>
	<line class="st0" x1="922.012" y1="1138.471" x2="697.074" y2="1097.511"/>
	<line class="st0" x1="485.437" y1="1058.973" x2="218.866" y2="1010.432"/>
	<line class="st0" x1="69.413" y1="136.799" x2="71.846" y2="149.261"/>
	<line class="st0" x1="223.439" y1="1237.301" x2="247.766" y2="1242.134"/>
	<line class="st0" x1="357.026" y1="1083.243" x2="357.01" y2="1072.006"/>
	<line class="st0" x1="357.204" y1="1083.326" x2="445.012" y2="1099.397"/>
	<line class="st0" x1="751.455" y1="1197.364" x2="844.956" y2="1214.886"/>
	<line class="st0" x1="845.064" y1="1204.551" x2="844.956" y2="1214.886"/>
	<line class="st0" x1="697.131" y1="960.29" x2="697.074" y2="1097.511"/>
	<line class="st0" x1="697.064" y1="960.078" x2="729.641" y2="939.334"/>
</g>
</svg>
